<svg xmlns="http://www.w3.org/2000/svg" width="32" height="32" viewBox="0 0 24 24"><path fill="currentColor" d="m14.136 3.361l.498-.05l-.498.05Zm-.152-.82l-.445.23l.445-.23Zm.447 2.277l.398-.303l-.398.303Zm.929.384l-.067-.495l.067.495Zm1.238-.82l.317.386l-.317-.387Zm.687-.473l.152.476l-.152-.476Zm.702.035l.199-.459l-.199.46Zm.637.538l-.353.354l.353-.354Zm.894.894l.353-.354l-.353.354Zm.538.637l.459-.199l-.46.199Zm.035.702l.476.152l-.476-.152Zm-.472.687l-.387-.317l.387.317Zm-.822 1.239l-.495-.067l.495.067Zm.385.928l-.303.397l.303-.397Zm1.457.295l.05-.498l-.05.498Zm.82.152l.229-.444l-.23.444Zm.47.521l.466-.184l-.465.184Zm.001 2.926l-.465-.184l.465.184Zm-.472.52l.23.445l-.23-.444Zm-.82.153l-.05-.497l-.015.001l-.017.003l.083.493Zm0 0l.05.498l.017-.002l.016-.003l-.082-.493Zm-1.456.295l-.303-.398l.303.398Zm-.384.929l-.496.066l.496-.066Zm.821 1.238l-.387.316l.387-.316Zm.472.687l-.477.152l.477-.152Zm-.035.702l-.459-.199l.459.199Zm-.538.637l.354.353l-.354-.353Zm-.894.893l-.353-.353l.353.353Zm-.637.538l.2.46l-.2-.46Zm-.702.035l-.152.477l.152-.477Zm-.687-.472l.317-.387l-.005-.003l-.312.39Zm0 0l-.317.387l.005.004l.312-.39Zm-1.238-.82l.066-.496l-.066.495Zm-.929.384l.398.303l-.398-.303Zm-.295 1.456l-.497-.05l.497.05Zm-.152.82l-.445-.229l.445.23Zm-.521.472l-.184-.465l.184.465Zm-2.926 0l.184-.465l-.184.465Zm-.52-.472l.444-.229l-.445.23Zm-.153-.82l-.498.05l.498-.05Zm-.295-1.456l-.398.303l.398-.303Zm-.928-.384l-.067-.496l.067.495Zm-1.239.82l-.317-.386l-.007.006l-.008.007l.332.374Zm0 0l.317.388l.008-.007l.007-.006l-.332-.374Zm-.687.473l.152.476l-.152-.476Zm-.702-.035l-.2.459l.2-.46Zm-.637-.538l.353-.354l-.353.354Zm-.894-.894l-.353.354l.353-.354Zm-.538-.637l.459-.198l-.459.198Zm-.035-.702l.476.152l-.476-.152Zm.472-.687l.387.317l-.387-.317Zm.821-1.239l.496.067l-.496-.067Zm-.384-.928l.303-.397l-.303.397Zm-1.457-.295l-.05.498l.05-.498Zm-.82-.152l.23-.445l-.23.445Zm-.47-.521l-.466.184l.465-.184Zm0-2.926l-.466-.184l.465.184Zm.47-.52l-.229-.445l.23.444Zm.82-.153v-.5h-.024l-.025.002l.05.498Zm0 0v.5h.025l.025-.003l-.05-.497Zm1.457-.295l-.303-.398l.303.398Zm.385-.928l.495-.067l-.495.067ZM4.38 7.4l.387-.316l-.387.317Zm-.472-.687l.476-.152l-.476.152Zm.035-.702l-.459-.198l.46.198Zm.538-.637l.354.354l-.354-.354Zm.894-.893l-.354-.354l.354.354Zm.637-.538l-.199-.46l.199.46Zm.702-.035l.152-.477l-.152.477Zm.687.472l.317-.387l-.317.387Zm1.238.821l.067-.495l-.067.495Zm.93-.385l-.399-.303l.398.303Zm.294-1.456l.497.05l-.497-.05Zm.152-.82l-.444-.228l.444.229Zm.521-.471l.184.465l-.184-.465Zm2.926 0l.184-.465l-.184.465Zm1.17 1.242a8.21 8.21 0 0 0-.063-.542a1.525 1.525 0 0 0-.142-.458l-.889.459c.01.02.027.06.044.164c.019.11.033.253.056.476l.995-.1Zm.196 1.203c-.012-.015-.048-.076-.087-.29a13.27 13.27 0 0 1-.108-.913l-.995.1c.04.401.073.732.119.99c.045.252.115.509.276.72l.795-.607Zm.464.192a.5.5 0 0 1-.464-.192l-.796.606a1.5 1.5 0 0 0 1.393.577l-.133-.991Zm.988-.713c-.325.267-.547.448-.722.569c-.179.124-.248.141-.266.144l.133.991c.262-.035.493-.167.704-.314c.215-.15.472-.36.785-.616l-.634-.774Zm.852-.561c-.16.051-.295.132-.423.223c-.124.088-.265.204-.429.338l.634.774c.173-.142.285-.233.375-.297a.566.566 0 0 1 .148-.086l-.305-.952Zm1.053.052a1.5 1.5 0 0 0-1.053-.052l.305.952a.5.5 0 0 1 .35.018l.398-.918Zm.792.644c-.15-.15-.279-.28-.393-.38a1.524 1.524 0 0 0-.399-.264l-.398.918c.021.009.059.03.139.1c.083.072.185.174.344.333l.707-.707Zm.893.893l-.893-.893l-.707.707l.893.893l.707-.707Zm.644.792a1.527 1.527 0 0 0-.265-.399c-.1-.114-.23-.243-.379-.393l-.707.707c.159.159.26.261.334.344c.07.08.09.118.099.139l.918-.398Zm.052 1.053a1.5 1.5 0 0 0-.052-1.053l-.918.398a.5.5 0 0 1 .017.35l.953.305Zm-.561.852c.134-.164.25-.305.338-.429c.09-.128.172-.263.223-.423l-.953-.305a.565.565 0 0 1-.085.148a8.04 8.04 0 0 1-.297.375l.774.634Zm-.713.988c.003-.018.02-.087.144-.266c.121-.175.302-.397.569-.722l-.774-.634c-.256.313-.467.57-.616.785c-.147.21-.279.442-.314.704l.991.133Zm.192.464a.5.5 0 0 1-.192-.464l-.991-.133a1.5 1.5 0 0 0 .577 1.392l.606-.795Zm1.203.195c-.419-.042-.703-.07-.913-.108c-.214-.039-.275-.075-.29-.087l-.606.795c.21.16.467.23.72.276c.257.046.588.08.99.12l.1-.996Zm1 .206a1.525 1.525 0 0 0-.458-.142c-.15-.025-.332-.043-.542-.064l-.1.995c.224.023.367.037.477.056a.568.568 0 0 1 .164.044l.459-.89Zm.707.781a1.5 1.5 0 0 0-.707-.781l-.459.889a.5.5 0 0 1 .236.26l.93-.368Zm.105 1.015c0-.211 0-.394-.01-.546a1.522 1.522 0 0 0-.095-.469l-.93.368c.008.021.02.063.027.168a7.5 7.5 0 0 1 .008.48h1Zm0 1.264v-1.264h-1v1.264h1Zm-.105 1.014c.062-.156.085-.312.095-.469c.01-.151.01-.334.01-.545h-1c0 .224 0 .368-.008.479a.567.567 0 0 1-.027.168l.93.367Zm-.707.782a1.5 1.5 0 0 0 .707-.782l-.93-.367a.5.5 0 0 1-.236.26l.459.89Zm-1 .206c.21-.021.393-.04.542-.065c.155-.025.308-.064.457-.14l-.458-.89a.565.565 0 0 1-.164.044c-.11.019-.253.033-.476.056l.1.995Zm.033-.005l-.165-.986l.165.986Zm-1.235.2c.015-.012.076-.049.29-.087c.21-.038.494-.067.912-.108l-.1-.995c-.401.04-.732.072-.99.119c-.252.045-.508.115-.719.275l.607.796Zm-.193.464a.5.5 0 0 1 .193-.464l-.607-.796a1.5 1.5 0 0 0-.577 1.393l.991-.133Zm.713.988a13.366 13.366 0 0 1-.569-.722c-.124-.178-.141-.248-.144-.266l-.99.133c.035.262.167.493.313.704c.15.214.36.472.616.784l.774-.633Zm.561.852a1.528 1.528 0 0 0-.223-.424a8.709 8.709 0 0 0-.338-.428l-.774.633c.142.174.233.285.297.376a.567.567 0 0 1 .085.147l.953-.304Zm-.052 1.053a1.5 1.5 0 0 0 .052-1.053l-.953.304a.5.5 0 0 1-.017.351l.918.398Zm-.643.791c.149-.149.278-.278.378-.392c.104-.119.198-.245.265-.4l-.918-.397a.566.566 0 0 1-.1.138a8.001 8.001 0 0 1-.333.344l.707.707Zm-.894.894l.893-.894l-.707-.707l-.893.894l.707.707Zm-.792.643c.154-.067.28-.16.399-.264c.114-.1.243-.23.393-.38l-.707-.706c-.159.159-.261.26-.344.333a.568.568 0 0 1-.139.1l.398.917Zm-1.053.053a1.5 1.5 0 0 0 1.053-.053l-.398-.917a.5.5 0 0 1-.35.017l-.305.953Zm-.852-.562c.164.134.305.25.429.338c.128.091.263.173.423.224l.305-.953a.565.565 0 0 1-.148-.085a8.028 8.028 0 0 1-.375-.298l-.634.774Zm.005.004l.624-.781l-.624.78Zm-.993-.716c.018.002.088.02.266.144c.175.121.397.302.722.568l.634-.774c-.313-.255-.57-.466-.785-.616c-.21-.146-.442-.278-.704-.313l-.133.99Zm-.464.192a.5.5 0 0 1 .464-.192l.133-.991a1.5 1.5 0 0 0-1.392.576l.795.607Zm-.195 1.203c.042-.419.07-.703.108-.913c.039-.214.075-.275.087-.29l-.795-.607c-.16.21-.23.468-.276.72c-.046.257-.08.588-.12.99l.996.1Zm-.206 1c.077-.15.115-.303.141-.458c.026-.15.044-.332.065-.542l-.995-.1a7.989 7.989 0 0 1-.056.477a.567.567 0 0 1-.044.164l.89.459Zm-.781.707a1.5 1.5 0 0 0 .781-.707l-.889-.459a.5.5 0 0 1-.26.236l.368.93Zm-1.015.105c.211 0 .394 0 .546-.01c.156-.01.313-.033.469-.095l-.368-.93a.567.567 0 0 1-.168.027c-.11.008-.255.008-.48.008v1Zm-1.264 0h1.264v-1h-1.264v1Zm-1.015-.105c.157.062.313.085.47.095c.151.01.334.01.545.01v-1c-.224 0-.368 0-.479-.008a.568.568 0 0 1-.168-.027l-.368.93Zm-.781-.707a1.5 1.5 0 0 0 .781.707l.368-.93a.5.5 0 0 1-.26-.236l-.89.459Zm-.206-1c.021.21.04.393.064.542c.026.155.065.308.142.458l.889-.459a.568.568 0 0 1-.044-.164a7.977 7.977 0 0 1-.056-.476l-.995.1Zm-.195-1.203c.012.015.048.076.087.29c.038.21.066.495.108.913l.995-.1c-.04-.401-.073-.732-.119-.99c-.045-.252-.115-.509-.276-.72l-.795.607Zm-.464-.192a.5.5 0 0 1 .464.192l.795-.606a1.5 1.5 0 0 0-1.392-.577l.133.991Zm-.988.713c.325-.267.547-.448.722-.569c.179-.124.248-.142.266-.144l-.133-.991c-.262.035-.493.167-.704.314c-.215.149-.472.36-.785.616l.634.774Zm.015-.013l-.664-.748l.664.748Zm-.867.574c.16-.051.295-.132.423-.223c.124-.088.265-.204.429-.338l-.634-.774a8.046 8.046 0 0 1-.375.297a.563.563 0 0 1-.148.085l.305.953Zm-1.053-.052a1.5 1.5 0 0 0 1.053.052l-.305-.953a.5.5 0 0 1-.35-.017l-.398.918Zm-.792-.644c.15.15.279.28.393.38c.118.103.245.197.399.264l.398-.918a.565.565 0 0 1-.139-.1a8.08 8.08 0 0 1-.344-.333l-.707.707Zm-.893-.893l.893.893l.707-.707l-.893-.893l-.707.707Zm-.644-.792c.067.154.161.28.265.399c.1.114.23.243.379.393l.707-.707a8.072 8.072 0 0 1-.334-.344a.567.567 0 0 1-.1-.139l-.917.398Zm-.052-1.053a1.5 1.5 0 0 0 .052 1.053l.918-.398a.5.5 0 0 1-.018-.35l-.952-.305Zm.561-.852c-.134.164-.25.305-.338.429a1.528 1.528 0 0 0-.223.423l.952.305a.566.566 0 0 1 .086-.148c.064-.09.155-.202.297-.375l-.774-.634Zm.713-.988c-.003.018-.02.087-.144.266c-.122.175-.302.397-.569.722l.774.634c.256-.313.467-.57.616-.785c.147-.21.279-.442.314-.704l-.991-.133Zm-.192-.464a.5.5 0 0 1 .192.464l.991.133a1.5 1.5 0 0 0-.577-1.392l-.606.795Zm-1.203-.195c.419.041.703.07.913.108c.214.039.275.075.29.087l.606-.796c-.21-.16-.467-.23-.72-.275c-.257-.046-.588-.08-.99-.12l-.1.996Zm-1-.206c.15.077.303.115.458.141c.15.026.331.044.542.065l.1-.995a7.973 7.973 0 0 1-.477-.056a.568.568 0 0 1-.164-.044l-.459.89Zm-.707-.782a1.5 1.5 0 0 0 .707.782l.459-.889a.5.5 0 0 1-.236-.26l-.93.367ZM1.5 12.633c0 .211 0 .394.01.546a1.5 1.5 0 0 0 .095.468l.93-.367a.568.568 0 0 1-.027-.168a8.061 8.061 0 0 1-.008-.48h-1Zm0-1.264v1.264h1v-1.264h-1Zm.105-1.015a1.526 1.526 0 0 0-.095.47c-.01.151-.01.334-.01.545h1c0-.224 0-.368.008-.479a.566.566 0 0 1 .027-.168l-.93-.368Zm.707-.781a1.5 1.5 0 0 0-.707.781l.93.368a.5.5 0 0 1 .236-.26l-.459-.89Zm1-.206c-.21.021-.393.04-.542.064a1.525 1.525 0 0 0-.458.142l.459.889c.02-.01.06-.027.164-.044c.11-.019.253-.033.476-.056l-.1-.995Zm.05-.002v1v-1Zm0 0v1v-1Zm1.153-.193c-.015.012-.076.048-.29.087c-.21.038-.494.066-.913.108l.1.995c.401-.04.733-.073.99-.119c.253-.045.51-.115.72-.276l-.607-.795Zm.192-.464a.5.5 0 0 1-.192.464l.607.795a1.5 1.5 0 0 0 .576-1.392l-.99.133Zm-.713-.989c.267.326.448.548.57.723c.124.179.14.248.143.266l.991-.133c-.035-.262-.167-.493-.314-.704c-.149-.215-.36-.472-.616-.785l-.774.633Zm-.561-.852c.05.16.132.296.223.424c.088.123.204.265.338.428l.774-.633a8.054 8.054 0 0 1-.297-.376a.566.566 0 0 1-.086-.147l-.952.304Zm.052-1.052a1.5 1.5 0 0 0-.052 1.052l.952-.304a.5.5 0 0 1 .018-.35l-.918-.398Zm.644-.792c-.15.149-.28.278-.38.393a1.525 1.525 0 0 0-.264.399l.918.397a.566.566 0 0 1 .1-.138a7.15 7.15 0 0 1 .333-.344l-.707-.707Zm.893-.894l-.893.894l.707.707l.893-.894l-.707-.707Zm0 0l.707.707l-.707-.707Zm.792-.643a1.53 1.53 0 0 0-.399.264c-.114.1-.244.23-.393.38l.707.706c.159-.158.261-.26.344-.333c.08-.07.118-.09.139-.1l-.398-.917Zm1.053-.053a1.5 1.5 0 0 0-1.053.053l.398.918a.5.5 0 0 1 .35-.018l.305-.953Zm.852.562c-.164-.134-.305-.25-.429-.338a1.525 1.525 0 0 0-.423-.224l-.305.953a.566.566 0 0 1 .148.085c.09.065.202.156.376.298l.633-.774Zm.988.713c-.018-.003-.087-.02-.266-.144a13.335 13.335 0 0 1-.722-.57l-.633.775c.312.256.57.467.784.616c.21.146.442.278.704.314l.133-.991Zm.464-.193a.5.5 0 0 1-.464.193l-.133.99a1.5 1.5 0 0 0 1.393-.576l-.796-.607Zm.195-1.202c-.042.418-.07.703-.108.912c-.039.214-.075.275-.087.29l.796.607c.16-.21.23-.467.275-.72c.046-.257.08-.588.12-.99l-.996-.1Zm.206-1c-.077.15-.116.303-.142.458c-.025.15-.043.331-.064.542l.995.1a7.97 7.97 0 0 1 .056-.477a.564.564 0 0 1 .044-.164l-.89-.458Zm.782-.707a1.5 1.5 0 0 0-.782.708l.889.458a.5.5 0 0 1 .26-.236l-.367-.93Zm1.014-.105c-.211 0-.394 0-.546.01a1.5 1.5 0 0 0-.468.095l.367.93a.566.566 0 0 1 .168-.027c.11-.008.255-.008.48-.008v-1Zm1.264 0h-1.264v1h1.264v-1Zm1.015.105a1.525 1.525 0 0 0-.47-.095c-.151-.01-.334-.01-.545-.01v1c.224 0 .368 0 .479.008a.588.588 0 0 1 .168.027l.367-.93Zm.781.707a1.5 1.5 0 0 0-.782-.707l-.367.93a.5.5 0 0 1 .26.236l.89-.459ZM15.5 12a3.5 3.5 0 0 1-3.5 3.5v1a4.5 4.5 0 0 0 4.5-4.5h-1ZM12 8.5a3.5 3.5 0 0 1 3.5 3.5h1A4.5 4.5 0 0 0 12 7.5v1ZM8.5 12A3.5 3.5 0 0 1 12 8.5v-1A4.5 4.5 0 0 0 7.5 12h1Zm3.5 3.5A3.5 3.5 0 0 1 8.5 12h-1a4.5 4.5 0 0 0 4.5 4.5v-1Z"/></svg>